# xmcd CD database file
#
# Track frame offsets:
#	225
#	19537
#	34752
#	48177
#	66725
#	78144
#	96268
#	108302
#	126818
#
# Disc length: 1859 seconds
#
# Revision: 0
# Processed by: cddbd v1.5.2PL0 Copyright (c) Steve Scherf et al.
# Submitted via: CDex 1.70beta2
#
DISCID=6e074009
DTITLE=UC (Oct.04) - USA - Universal Country
DYEAR=2004
DGENRE=Country
TTITLE0=Jason McCoy - I Lie
TTITLE1=Doc Walker - Forgive Me(For Giving A Dam)
TTITLE2=Alison Krauss and Union Station - Restless
TTITLE3=Julie Roberts - The Chance
TTITLE4=Willie Nelson wt. Toby Keith - Midnight Rider
TTITLE5=Sugerland - Baby Girl
TTITLE6=Josh Gracin - Nothin' To Loose
TTITLE7=Cross Canada Ragweed - Alabama
TTITLE8=Malibu Storm - Long Way To Fall
EXTD=YEAR: 2004
EXTT0=
EXTT1=
EXTT2=
EXTT3=
EXTT4=
EXTT5=
EXTT6=
EXTT7=
EXTT8=
PLAYORDER=
